<svg width="24" height="24" viewBox="0 0 24 24" fill="none" xmlns="http://www.w3.org/2000/svg">
<path d="M18.1643 20.9378C17.0658 21.9932 15.8665 21.8266 14.712 21.3266C13.4903 20.8156 12.3695 20.7934 11.0805 21.3266C9.46647 22.0155 8.61462 21.8155 7.65069 20.9378C2.18095 15.3496 2.98796 6.83959 9.19746 6.52852C10.7106 6.60629 11.7642 7.35064 12.6497 7.41729C13.9723 7.15066 15.2388 6.38409 16.6511 6.48408C18.3436 6.6174 19.6214 7.28398 20.462 8.48383C16.9649 10.5613 17.7944 15.1274 21 16.4051C20.3611 18.0715 19.5317 19.7269 18.153 20.9489L18.1643 20.9378ZM12.5376 6.46186C12.3695 3.9844 14.3982 1.94021 16.7296 1.74023C17.0546 4.60654 14.1068 6.7396 12.5376 6.46186Z" fill="black"/>
</svg>
